# xmcd
#
# Track frame offsets:
#	150
#	14592
#	30085
#	44198
#	58062
#	76122
#	90850
#	107054
#	129004
#	147180
#	162595
#	176572
#
# Disc length: 2565 seconds
#
# Revision: 1
# Processed by: cddbd v1.5.2PL0 Copyright (c) Steve Scherf et al.
# Submitted via: audiograbber 1.83.01
#
DISCID=900a030c
DTITLE=Jessie and The Gents - On The Rise
DYEAR=2017
DGENRE=Bluegrass
TTITLE0=Believers
TTITLE1=Baby Take Me Home
TTITLE2=On The Rise
TTITLE3=Jolene
TTITLE4=Lord Could You Call Me
TTITLE5=Creepin' In
TTITLE6=I Ain't Gonna Ride With You
TTITLE7=Oh Atlanta
TTITLE8=Poor Old Me
TTITLE9=Whiskey Before Breakfast
TTITLE10=Leave Between The Darkness And The Dawn
TTITLE11=Stand Together Tight
EXTD=Debutalbum vom Mai 2017
EXTT0=
EXTT1=
EXTT2=
EXTT3=
EXTT4=
EXTT5=
EXTT6=
EXTT7=
EXTT8=
EXTT9=
EXTT10=
EXTT11=
PLAYORDER=
